<svg xmlns="http://www.w3.org/2000/svg" width="999" height="999" fill="none" viewBox="0 0 999 999" xmlns:xlink="http://www.w3.org/1999/xlink">
  <g clip-path="url(#a)">
    <path fill="url(#b)" stroke="#fff" stroke-width="40" d="m830.885 623.144 99.914 45.287 1.029.478c43.202 20.587 42.859 85.128-1.029 105.017L528.602 956.229l-.005.003c-16.985 7.693-36.277 7.694-53.262 0l-.005-.003L73.15 773.926l-1.029-.479c-43.202-20.587-42.859-85.128 1.03-105.016l99.931-45.288 8.257-3.741 8.257 3.742L469.037 749.82h-.001c10.494 4.755 21.528 7.143 32.939 7.143 11.416 0 22.464-2.391 32.931-7.14l.007-.003 279.458-126.676 8.257-3.743zm-.379-220.824 100.293 45.459c44.234 20.046 44.234 85.45 0 105.495L528.602 735.578l-.005.003c-16.986 7.693-36.277 7.693-53.262 0l-.005-.003L73.15 553.274l-1.029-.478c-43.202-20.587-42.86-85.128 1.028-105.017l100.313-45.459 8.257-3.742 8.257 3.743 279.057 126.501c10.495 4.755 21.53 7.144 32.942 7.144 11.416 0 22.464-2.391 32.931-7.14l.007-.002L813.992 402.32l8.257-3.742zM501.983 38.002a64.2 64.2 0 0 1 26.642 5.79l.001-.001L930.79 226.25l.001.001c44.222 20.067 44.222 85.471 0 105.538l-.002.001-402.182 182.443-.001-.001c-16.991 7.717-36.291 7.717-53.282 0L73.144 331.791l-.003-.001c-44.222-20.067-44.222-85.489 0-105.556l.003-.001L475.342 43.791a64.2 64.2 0 0 1 26.641-5.79Z"/>
    <g clip-path="url(#c)">
      <path fill="#fff" d="M573.703 152.385a260 260 0 0 0-12.013-.585c-3.217-3.287-7.07-6.44-11.514-9.421-16.971-10.586-39.851-18.921-66.205-24.119 0 0-31.057 7.128-49.127 48.287-29.416 7.336-56.449 16.474-80.358 27.164-24.07 10.678-44.814 22.812-61.67 36.071-91.146 7.084-107.084 21.262-107.084 21.262 10.667 11.999 28.205 22.51 50.759 30.422 6.67 2.196 13.786 4.093 21.246 5.663.195 1.827.6 3.752 1.006 5.485 3.861 16.198 19.985 31.36 45.59 42.869a269 269 0 0 0 18.696 7.946c99.799 40.363 183.869 22.648 250.067-.7-.648 7.369 3.867 14.677 12.891 20.867 5.494 4.361 12.271 8.365 20.137 11.898l27.508 12.828c-21.585 11.525-49.307 20.747-77.8 14.33-28.149-5.749-59.073-7.941-89.49-6.345a62 62 0 0 1-5.95.506c-5.484-1.174-11.594-1.568-17.526-1.131s-11.406 1.685-15.703 3.579l-.106.047c-5.596 2.492-8.766 5.906-8.817 9.498s3.021 7.068 8.544 9.669c16.988 7.98 45.221 5.459 56.007 4.064 16.465.182 32.761 1.745 48.075 4.609 29.186 6.586 84.382 11.776 144.423-18.822l2.101.94 5.712 2.587c5.569 2.597 13.14 4.095 21.048 4.164s15.504-1.297 21.118-3.796l99.779-44.425c5.614-2.499 8.785-5.928 8.817-9.532.031-3.603-3.08-7.087-8.649-9.684 0 0-66.188-31.018-77.317-36.208-7.571-3.665-16.199-6.844-25.64-9.448l-.169-.04.211.021c-.926-.257-1.789-.409-2.714-.648-12.761-3.803-27.68-5.785-42.815-5.687l.695.092-.844-.007c52.759-29.615 92.728-67.509 6.896-113.707-5.329-3.033-11.005-5.937-17.002-8.7-24.708-11.864-57.475-19.585-92.813-21.863"/>
    </g>
  </g>
  <defs>
    <clipPath id="a">
      <path fill="#fff" d="M0 0h999v999H0z"/>
    </clipPath>
    <clipPath id="c">
      <path fill="#fff" d="M24 284.176 532 58l503.975 235.007-508 226.176z"/>
    </clipPath>
    <linearGradient id="b" x1="501.975" x2="501.975" y1="58.002" y2="942.002" gradientUnits="userSpaceOnUse">
      <stop stop-color="#002d11"/>
      <stop offset="1" stop-color="#00b946"/>
    </linearGradient>
  </defs>
</svg>
